<svg width="21" height="21" viewBox="0 0 21 21" fill="none" xmlns="http://www.w3.org/2000/svg">
<path fill-rule="evenodd" clip-rule="evenodd" d="M2.86169 9.05408C2.86169 5.18808 5.9957 2.05408 9.86169 2.05408C13.7277 2.05408 16.8617 5.18808 16.8617 9.05408C16.8617 10.94 16.1159 12.6518 14.9031 13.9105C14.8689 13.9368 14.8359 13.9656 14.8046 13.997C14.7732 14.0283 14.7444 14.0612 14.7181 14.0955C13.4594 15.3083 11.7476 16.0541 9.86169 16.0541C5.9957 16.0541 2.86169 12.9201 2.86169 9.05408ZM15.4794 16.086C13.9397 17.3176 11.9867 18.0541 9.86169 18.0541C4.89113 18.0541 0.861694 14.0246 0.861694 9.05408C0.861694 4.08351 4.89113 0.0540771 9.86169 0.0540771C14.8323 0.0540771 18.8617 4.08351 18.8617 9.05408C18.8617 11.1791 18.1252 13.1321 16.8936 14.6718L20.5688 18.347C20.9593 18.7375 20.9593 19.3707 20.5688 19.7612C20.1783 20.1517 19.5451 20.1517 19.1546 19.7612L15.4794 16.086Z" fill="black"/>
</svg>
